Coordinates
version=1
nRows=32
nColumns=12
inDegrees=yes

Units are S.I. units (second, meters, Newtons, ...)
Angles are in degrees

endheader
time	SC_y	SC_z	SC_x	AC_y	AC_z	AC_x	GH_y	GH_z	GH_yy	EL_x	PS_y
       0.0              -41.93          27.06          45.05          68.67         -14.26          19.47          117.1          30.03         -103.9          78.07          90.82
   0.02701              -41.93          27.06          45.05          68.66         -14.25          19.47          117.0          30.03         -103.9          78.07          90.81
   0.05401              -41.93          27.05          45.06          68.66         -14.25          19.47          117.0          30.03         -103.9          78.06           90.8
   0.08102              -41.93          27.05          45.06          68.65         -14.25          19.46          117.0          30.02         -103.8          78.05           90.8
     0.108              -41.93          27.05          45.07          68.65         -14.24          19.46          116.9          30.02         -103.8          78.04          90.79
     0.135              -41.93          27.04          45.08          68.64         -14.24          19.45          116.9          30.01         -103.8          78.03          90.78
     0.162              -41.93          27.04          45.09          68.63         -14.23          19.45          116.9          30.01         -103.7          78.02          90.77
     0.189              -41.94          27.03           45.1          68.63         -14.23          19.44          116.8           30.0         -103.7          78.01          90.76
     0.216              -41.94          27.03           45.1          68.62         -14.22          19.44          116.8           30.0         -103.7           78.0          90.75
    0.2431              -41.94          27.03          45.11          68.61         -14.22          19.43          116.7          29.99         -103.6          77.98          90.74
    0.2701              -41.94          27.02          45.12           68.6         -14.21          19.42          116.7          29.99         -103.6          77.97          90.73
    0.2971              -41.94          27.01          45.13          68.59          -14.2          19.42          116.6          29.98         -103.5          77.95          90.71
    0.3241              -41.95          27.01          45.15          68.58          -14.2          19.41          116.6          29.97         -103.5          77.94           90.7
    0.3511              -41.95           27.0          45.16          68.57         -14.19           19.4          116.5          29.96         -103.4          77.92          90.69
    0.3781              -41.95          26.99          45.17          68.56         -14.18          19.39          116.5          29.95         -103.3           77.9          90.67
    0.4051              -41.95          26.99          45.19          68.55         -14.17          19.38          116.4          29.94         -103.3          77.88          90.65
    0.4321              -41.96          26.98           45.2          68.53         -14.16          19.37          116.3          29.93         -103.2          77.86          90.63
    0.4591              -41.96          26.97          45.22          68.51         -14.15          19.36          116.2          29.92         -103.1          77.84          90.61
    0.4861              -41.97          26.96          45.24           68.5         -14.14          19.35          116.2          29.91         -103.0          77.81          90.59
    0.5131              -41.97          26.95          45.26          68.48         -14.13          19.34          116.1           29.9         -102.9          77.78          90.57
    0.5401              -41.97          26.93          45.29          68.46         -14.11          19.32          116.0          29.88         -102.8          77.75          90.54
    0.5671              -41.98          26.92          45.31          68.44          -14.1          19.31          115.8          29.87         -102.7          77.71          90.51
    0.5941              -41.98          26.91          45.34          68.41         -14.08          19.29          115.7          29.85         -102.6          77.67          90.48
    0.6211              -41.99          26.89          45.37          68.38         -14.06          19.27          115.6          29.83         -102.4          77.63          90.44
    0.6481               -42.0          26.87          45.41          68.35         -14.04          19.25          115.4          29.81         -102.3          77.58           90.4
    0.6751              -42.01          26.85          45.45          68.32         -14.02          19.22          115.2          29.78         -102.1          77.53          90.35
    0.7021              -42.01          26.83          45.49          68.28         -13.99          19.19          115.0          29.76         -101.9          77.47           90.3
    0.7292              -42.02           26.8          45.54          68.24         -13.96          19.16          114.8          29.72         -101.7           77.4          90.25
    0.7562              -42.04          26.77           45.6          68.19         -13.93          19.13          114.5          29.69         -101.4          77.33          90.18
    0.7832              -42.05          26.74          45.66          68.13         -13.89          19.09          114.2          29.65         -101.1          77.24          90.11
    0.8102              -42.06           26.7          45.73          68.07         -13.85          19.04          113.9           29.6         -100.8          77.14          90.03
    0.8372              -42.08          26.66          45.81          67.99          -13.8          18.99          113.5          29.55         -100.4          77.03          89.93
